<?xml version="1.0" standalone="no"?><!DOCTYPE svg PUBLIC "-//W3C//DTD SVG 1.1//EN" "http://www.w3.org/Graphics/SVG/1.1/DTD/svg11.dtd"><svg t="1696239642661" class="icon" viewBox="0 0 1024 1024" version="1.1" xmlns="http://www.w3.org/2000/svg" p-id="12855" xmlns:xlink="http://www.w3.org/1999/xlink" width="48" height="48"><path d="M867.12685 559.619989l-415.999992-415.999992A52.986666 52.986666 0 0 0 413.413525 127.999998H338.84686a361.70666 361.70666 0 0 1 2.486667 42.666665c0 42.713332-7.266667 83.199998-20.473333 113.999998-5.146667 12-10.746666 21.546666-16.48 29.08A85.286665 85.286665 0 1 1 256.000195 298.666661c6 0 16.573333-9.64 25.646666-30.806666C292.460194 242.619995 298.666861 207.193329 298.666861 170.666663a314.759994 314.759994 0 0 0-2.873333-42.666665H216.206862c2.82-20.533333 7.653333-39.366666 14.146667-54.526666C239.426862 52.306666 250.000195 42.666666 256.000195 42.666666s16.573333 9.64 25.646666 30.806666c6.493333 15.16 11.333333 33.999999 14.146667 54.526666h43.053332c-3.166667-26.559999-9.286666-51.046666-18-71.333332C299.733527 7.333333 271.153528 0 256.000195 0s-43.733332 7.333333-64.859999 56.666666c-8.666666 20.286666-14.82 44.773332-17.999999 71.333332H53.333532a53.393332 53.393332 0 0 0-53.333332 53.333332v360.079993a52.986666 52.986666 0 0 0 15.62 37.713332l415.999992 415.999992a53.333332 53.333332 0 0 0 75.426665 0l360.079993-360.079993a53.399999 53.399999 0 0 0 0-75.426665zM597.333522 1023.99998a21.333333 21.333333 0 0 1-15.086667-36.419999l382.706659-382.706659a10.666666 10.666666 0 0 0 0-15.08L539.580189 164.419997a21.333333 21.333333 0 0 1 30.173333-30.173333l425.373325 425.373325a53.399999 53.399999 0 0 1 0 75.426665l-382.706659 382.706659A21.266666 21.266666 0 0 1 597.333522 1023.99998z" fill="#5C5C66" p-id="12856"></path></svg>