<?xml version="1.0" standalone="no"?><!DOCTYPE svg PUBLIC "-//W3C//DTD SVG 1.1//EN" "http://www.w3.org/Graphics/SVG/1.1/DTD/svg11.dtd"><svg t="1696240285460" class="icon" viewBox="0 0 1024 1024" version="1.1" xmlns="http://www.w3.org/2000/svg" p-id="52467" xmlns:xlink="http://www.w3.org/1999/xlink" width="48" height="48"><path d="M600.631 757.016a30.104 30.104 0 0 0-7.432 0.944l-174.761 45.062c-13.278 3.082-21.909 15.912-19.759 29.372 1.592 12.563 11.383 25.362 26.895 25.362a29.984 29.984 0 0 0 7.491-1.003l174.702-45.003c13.278-3.082 21.909-15.912 19.759-29.373-1.593-12.621-11.324-25.361-26.895-25.361z m-41.759 94.252a25.835 25.835 0 0 0-14.804 5.013c-11.619 7.962-22.767 12.386-33.088 12.976h-1.357a45.727 45.727 0 0 1-20.054-5.898c-0.59-0.295-2.89-1.828-4.424-2.831-4.247-2.831-5.426-3.598-6.842-3.775a28.2 28.2 0 0 0-12.976-3.185 31.26 31.26 0 0 0-28.901 20.172c-3.362 9.732-0.177 19.582 8.493 26.482 19.582 15.394 42.466 23.592 66.059 23.592 21.587 0 42.997-6.901 61.871-19.936a27.956 27.956 0 0 0 10.97-32.263c-3.775-12.15-13.802-20.289-24.949-20.289v-0.058z m149.517-491.902A207.792 207.792 0 0 0 625.58 275.2a228.133 228.133 0 0 0-110.294-27.839c-33.383 0-66.943 7.078-97.142 20.466a222.66 222.66 0 0 0-81.394 61.222c-41.169 49.367-58.568 120.852-46.418 191.098 11.619 67.533 48.6 124.214 101.447 155.533a27.315 27.315 0 0 0 14.037 4.011 28.31 28.31 0 0 0 26.541-21.705c3.523-11.792-1.66-24.445-12.445-30.375-70.659-41.877-90.772-142.734-68.831-212.214 21.292-67.356 86.466-112.654 162.198-112.654 31.909 0 62.992 8.257 89.828 23.887 36.332 21.115 62.284 56.327 73.136 99.147a177.358 177.358 0 0 1-19.464 135.008c-9.614 15.748-22.059 30.316-34.091 44.354-7.727 8.965-15.748 18.284-23.003 27.898-12.386 16.515-16.161 34.209-19.877 51.255l-2.005 9.142-159.367 42.407c-13.333 3.19-21.933 16.142-19.7 29.667 1.651 12.445 11.324 25.126 26.718 25.126a29.837 29.837 0 0 0 7.668-1.062l124.332-33.088c4.6-1.239 9.142-2.359 13.448-3.421 34.032-8.375 60.868-15.04 63.994-64.171 1.121-17.34 15.984-33.619 29.137-47.834 3.362-3.716 6.547-7.137 9.437-10.617 15.807-18.461 35.448-43.587 47.893-73.254 26.306-62.638 21.646-132.884-12.976-197.763l0.002-0.058zM237.72 478.095c0-15.335-12.386-27.839-27.721-27.839h-54.027c-15.359 0-27.81 12.451-27.81 27.81 0 15.359 12.451 27.81 27.81 27.81h53.909c15.335 0 27.721-12.445 27.721-27.78h0.118z m628.974-27.839h-53.85c-15.359 0-27.81 12.451-27.81 27.81 0 15.359 12.451 27.81 27.81 27.81h53.85c15.359 0 27.81-12.451 27.81-27.81-0.001-15.359-12.451-27.81-27.81-27.81zM279.597 284.342c11.578 10.117 29.165 8.932 39.281-2.646 9.167-10.491 9.167-26.144 0-36.636l-38.102-38.22c-11.578-10.117-29.165-8.932-39.281 2.646-9.167 10.491-9.167 26.144 0 36.636l38.102 38.22z m465.596 387.506c-11.578-10.117-29.165-8.932-39.281 2.646-9.167 10.491-9.167 26.144 0 36.636l38.102 38.161c11.578 10.117 29.165 8.932 39.281-2.646 9.167-10.491 9.167-26.144 0-36.636l-38.102-38.161zM512.395 208.434c15.335 0 27.721-12.445 27.721-27.78v-53.968c-0.707-15.326-13.704-27.178-29.03-26.471-14.337 0.661-25.81 12.134-26.471 26.471v53.968c0 15.335 12.386 27.78 27.721 27.78h0.059zM318.878 671.848c-10.804-10.847-28.356-10.882-39.203-0.078l-0.078 0.078-38.102 38.161c-10.847 10.847-10.847 28.434 0 39.281 10.847 10.847 28.434 10.847 39.281 0l38.102-38.102c10.852-10.868 10.852-28.472 0-39.34z m387.034-387.506c10.804 10.847 28.356 10.882 39.203 0.078l0.078-0.078 38.102-38.161c10.847-10.847 10.847-28.434 0-39.281-10.847-10.847-28.434-10.847-39.281 0l-38.102 38.102c-10.852 10.869-10.852 28.472 0 39.34z" fill="#07A1A5" p-id="52468"></path></svg>