<?xml version="1.0" standalone="no"?><!DOCTYPE svg PUBLIC "-//W3C//DTD SVG 1.1//EN" "http://www.w3.org/Graphics/SVG/1.1/DTD/svg11.dtd"><svg t="1696239696250" class="icon" viewBox="0 0 1229 1024" version="1.1" xmlns="http://www.w3.org/2000/svg" p-id="16183" xmlns:xlink="http://www.w3.org/1999/xlink" width="57.609375" height="48"><path d="M175.063261 575.208093a435.870183 435.870183 0 1 1 435.804933 435.870183A435.804933 435.804933 0 0 1 175.063261 575.208093z" fill="#FFF100" p-id="16184"></path><path d="M198.814271 646.069623a486.308454 486.308454 0 0 1 556.060734-481.023202 435.870183 435.870183 0 0 0-542.423478 595.015 486.373704 486.373704 0 0 1-13.637256-113.991798z" fill="#FFFFFF" p-id="16185"></path><path d="M1019.007116 504.150813a486.047454 486.047454 0 0 1-485.916955 486.047454 495.378208 495.378208 0 0 1-70.013279-5.024252 435.870183 435.870183 0 0 0 542.488728-595.015A489.831956 489.831956 0 0 1 1019.007116 504.150813z" fill="#F8B62D" p-id="16186"></path><path d="M610.868194 1023.997781a448.920189 448.920189 0 1 1 402.657919-647.476021 13.050005 13.050005 0 1 1-23.35951 11.549254 422.820178 422.820178 0 1 0 31.972514 285.46887 13.050005 13.050005 0 1 1 25.382261 6.003003 447.223688 447.223688 0 0 1-436.653184 344.454894z" fill="#231815" p-id="16187"></path><path d="M1046.738377 588.258099a13.050005 13.050005 0 0 1-13.050005-13.050006 422.428677 422.428677 0 0 0-6.525003-74.907031 13.050005 13.050005 0 1 1 25.708511-4.567502A455.053691 455.053691 0 0 1 1059.788383 575.208093a13.050005 13.050005 0 0 1-13.050006 13.050006z" fill="#231815" p-id="16188"></path><path d="M80.907472 80.939135a228.375096 228.375096 0 0 0 0 322.987636l322.987635-322.987636a228.375096 228.375096 0 0 0-322.987635 0z" fill="#f4ea2a" p-id="16189" data-spm-anchor-id="a313x.search_index.0.i30.27023a81KticoB" class="selected"></path><path d="M80.907472 422.392529l-9.200254-9.265504a241.425101 241.425101 0 1 1 341.453393-341.388143l9.200254 9.200253zM242.531789 27.107863a215.32509 215.32509 0 0 0-161.167567 358.09215l303.804127-303.999877A213.75909 213.75909 0 0 0 242.531789 27.107863z" fill="#231815" p-id="16190"></path><path d="M1149.50717 80.939135a228.375096 228.375096 0 0 1 0 322.987636l-322.987635-322.987636a228.375096 228.375096 0 0 1 322.987635 0z" fill="#f4ea2a" p-id="16191" data-spm-anchor-id="a313x.search_index.0.i29.27023a81KticoB" class="selected"></path><path d="M1149.50717 422.392529l-341.257643-341.453394 9.265504-9.200253a241.425101 241.425101 0 0 1 341.388143 341.388143z m-304.065127-341.192393L1149.50717 385.200013a215.32509 215.32509 0 0 0-304.065127-303.999877zM934.18208 551.652833H630.443202V242.432953a19.575008 19.575008 0 1 0-39.150016 0v348.369897H934.18208a19.575008 19.575008 0 0 0 0-39.150017z" fill="#231815" p-id="16192"></path></svg>