<?xml version="1.0" standalone="no"?><!DOCTYPE svg PUBLIC "-//W3C//DTD SVG 1.1//EN" "http://www.w3.org/Graphics/SVG/1.1/DTD/svg11.dtd"><svg t="1696240333858" class="icon" viewBox="0 0 1024 1024" version="1.1" xmlns="http://www.w3.org/2000/svg" p-id="55171" xmlns:xlink="http://www.w3.org/1999/xlink" width="48" height="48"><path d="M211.2 1017.6V390.4c0-25.6-19.2-44.8-44.8-44.8h-128c-19.2 0-38.4 19.2-38.4 44.8v627.2h211.2z m268.8 0V51.2c0-25.6-19.2-44.8-44.8-44.8h-128c-25.6 0-44.8 19.2-44.8 44.8V1024l217.6-6.4z m275.2 0V620.8c0-25.6-19.2-44.8-44.8-44.8h-128c-25.6 0-44.8 19.2-44.8 44.8v396.8h217.6z m268.8 0V390.4c0-25.6-19.2-44.8-44.8-44.8h-128c-25.6 0-44.8 19.2-44.8 44.8v627.2H1024z" fill="#C0C6D4" p-id="55172"></path></svg>