<?xml version="1.0" standalone="no"?><!DOCTYPE svg PUBLIC "-//W3C//DTD SVG 1.1//EN" "http://www.w3.org/Graphics/SVG/1.1/DTD/svg11.dtd"><svg t="1696240111268" class="icon" viewBox="0 0 1024 1024" version="1.1" xmlns="http://www.w3.org/2000/svg" p-id="38027" xmlns:xlink="http://www.w3.org/1999/xlink" width="48" height="48"><path d="M672 672m-240 0a240 240 0 1 0 480 0 240 240 0 1 0-480 0Z" fill="#EEFAF0" p-id="38028"></path><path d="M920 784h-56V463.9c0-178.7-135-327.4-308-349.2V108c0-24.2-19.8-44-44-44s-44 19.8-44 44v6.7c-173 21.8-308 170.5-308 349.2V784h-56c-22 0-40 18-40 40s18 40 40 40h308.1c2.1 53.3 46.1 96 99.9 96s97.8-42.7 99.9-96H920c22 0 40-18 40-40s-18-40-40-40zM512 896c-18.5 0-33.8-14-35.8-32h71.5c-1.9 18-17.2 32-35.7 32z m272-112.1H240v-320c0-36.5 7.2-72 21.4-105.4 13.8-32.4 33.5-61.5 58.6-86.6s54.2-44.8 86.6-58.6c33.4-14.2 68.9-21.4 105.4-21.4s72 7.2 105.4 21.4c32.4 13.8 61.5 33.5 86.6 58.6s44.8 54.2 58.6 86.6c14.2 33.4 21.4 68.9 21.4 105.4v320z" fill="#1CC6A1" p-id="38029"></path><path d="M680 456c-19.8 0-36 16.2-36 36v168c0 19.8 16.2 36 36 36s36-16.2 36-36V492c0-19.8-16.2-36-36-36z" fill="#08B28A" p-id="38030"></path></svg>