<?xml version="1.0" standalone="no"?><!DOCTYPE svg PUBLIC "-//W3C//DTD SVG 1.1//EN" "http://www.w3.org/Graphics/SVG/1.1/DTD/svg11.dtd"><svg t="1696251745900" class="icon" viewBox="0 0 1024 1024" version="1.1" xmlns="http://www.w3.org/2000/svg" p-id="3733" xmlns:xlink="http://www.w3.org/1999/xlink" width="48" height="48"><path d="M631.784732 652.417268A49.142454 49.142454 0 1 0 592.880289 742.255817c48.374603 20.987923 79.856488 49.910305 79.856488 73.457731 0 44.791299-108.266969 109.802671-277.962006 109.80267S116.812765 860.760797 116.812765 815.969498c0-22.011724 27.13073-48.630554 70.386328-69.106576a49.142454 49.142454 0 0 0-41.975847-88.814748C63.831057 696.696667 18.783807 752.749778 18.783807 815.969498 18.783807 934.474478 180.544385 1023.801127 394.774771 1023.801127a571.025078 571.025078 0 0 0 266.956144-58.356665c70.386327-38.392542 109.03482-91.374251 109.03482-149.474964 0-65.779222-50.678156-124.903737-138.981003-163.55223z" p-id="3734" fill="#C0C6D4"></path><path d="M1011.359 176.093794a49.398404 49.398404 0 0 0-33.273537-33.017587L487.684723 2.047602a48.886504 48.886504 0 0 0-62.195918 41.463946l-85.999295 746.095071a48.118653 48.118653 0 0 0 10.238011 36.08899A49.398404 49.398404 0 0 0 384.024859 844.635929h5.630906a48.886504 48.886504 0 0 0 48.630554-43.511547l31.225934-270.795398 399.79434 88.046896a49.142454 49.142454 0 0 0 57.844764-60.660216l-51.190056-187.099656 126.439439-148.195213a49.142454 49.142454 0 0 0 8.95826-46.327001z m-237.521862 194.778164l35.83304 133.861997-330.431814-72.94583 36.856841-319.425951 361.401797 103.915814-93.677803 109.802671a48.886504 48.886504 0 0 0-9.982061 44.791299z" p-id="3735" fill="#C0C6D4"></path></svg>